<svg xmlns="http://www.w3.org/2000/svg" viewBox="0 0 64 64">
  <!-- Auto-Körper -->
  <path d="M8 36 L12 24 L20 20 L44 20 L52 24 L56 36 L56 44 L8 44 Z" fill="#e4032e"/>
  <!-- Fenster -->
  <path d="M16 24 L22 22 L42 22 L48 24 L50 32 L14 32 Z" fill="#1e1f1d"/>
  <!-- Trennlinie Fenster -->
  <line x1="32" y1="22" x2="32" y2="32" stroke="#e4032e" stroke-width="2"/>
  <!-- Unterboden -->
  <rect x="6" y="44" width="52" height="6" rx="2" fill="#1e1f1d"/>
  <!-- Rad links -->
  <circle cx="18" cy="48" r="7" fill="#1e1f1d"/>
  <circle cx="18" cy="48" r="4" fill="#666"/>
  <circle cx="18" cy="48" r="2" fill="#1e1f1d"/>
  <!-- Rad rechts -->
  <circle cx="46" cy="48" r="7" fill="#1e1f1d"/>
  <circle cx="46" cy="48" r="4" fill="#666"/>
  <circle cx="46" cy="48" r="2" fill="#1e1f1d"/>
  <!-- Scheinwerfer -->
  <rect x="8" y="30" width="4" height="4" rx="1" fill="#fff"/>
  <rect x="52" y="30" width="4" height="4" rx="1" fill="#fff"/>
  <!-- Warnsymbol (Schaden) -->
  <path d="M32 8 L36 16 L28 16 Z" fill="#e4032e" stroke="#1e1f1d" stroke-width="1"/>
  <text x="32" y="15" text-anchor="middle" fill="#fff" font-size="6" font-weight="bold">!</text>
</svg>
